<?xml version="1.0" standalone="no"?>
<!DOCTYPE svg PUBLIC "-//W3C//DTD SVG 20010904//EN"
 "http://www.w3.org/TR/2001/REC-SVG-20010904/DTD/svg10.dtd">
<svg version="1.0" xmlns="http://www.w3.org/2000/svg"
 width="980.000000pt" height="980.000000pt" viewBox="0 0 980.000000 980.000000"
 preserveAspectRatio="xMidYMid meet">

<g transform="translate(0.000000,980.000000) scale(0.100000,-0.100000)"
fill="#000000" stroke="none">
<path d="M5280 7726 c0 -3 26 -12 58 -21 94 -27 291 -130 384 -200 163 -123
322 -301 382 -429 61 -129 61 -127 61 -756 0 -566 0 -576 -21 -621 -30 -64
-88 -125 -148 -157 l-51 -27 -292 -3 -293 -3 0 -610 c0 -426 -3 -617 -11 -632
-6 -12 -41 -49 -77 -83 l-66 -61 -4 -71 c-5 -88 6 -119 62 -169 75 -68 76 -72
76 -224 0 -146 0 -145 -62 -213 -41 -45 -34 -119 19 -176 36 -41 50 -90 39
-136 -4 -14 -33 -53 -64 -86 l-57 -60 -3 -88 c-4 -99 -3 -102 74 -205 57 -76
70 -117 54 -159 -9 -25 -140 -201 -282 -380 -54 -68 -67 -96 -31 -64 10 8 144
100 298 204 276 185 282 189 415 235 243 83 444 181 630 305 597 397 1000 985
1150 1676 98 453 72 949 -73 1398 -210 646 -677 1202 -1283 1527 -241 129
-495 219 -754 268 -47 9 -95 18 -107 21 -13 2 -23 2 -23 0z"/>
<path d="M4800 7414 c-14 -2 -52 -9 -85 -15 -212 -36 -436 -174 -569 -349 -24
-30 -46 -61 -50 -67 -6 -10 158 -13 804 -13 769 0 810 1 801 18 -22 40 -131
161 -195 214 -87 73 -262 161 -376 188 -81 19 -276 34 -330 24z"/>
<path d="M4774 4419 c-18 -20 -19 -52 -19 -1018 l0 -996 63 -3 62 -3 0 1001
c0 987 0 1000 -20 1020 -26 26 -62 25 -86 -1z"/>
</g>
</svg>
